<?xml version="1.0" standalone="no"?><!DOCTYPE svg PUBLIC "-//W3C//DTD SVG 1.1//EN" "http://www.w3.org/Graphics/SVG/1.1/DTD/svg11.dtd"><svg t="1710859418225" class="icon" viewBox="0 0 1024 1024" version="1.1" xmlns="http://www.w3.org/2000/svg" p-id="14006" xmlns:xlink="http://www.w3.org/1999/xlink" width="200" height="200"><path d="M693.44 324.8v-9.28a6.4 6.4 0 0 1 5.44-6.4 141.76 141.76 0 0 1 75.2 10.56 6.72 6.72 0 0 1 3.52 7.68l-2.24 7.04zM329.92 324.8v-9.28a6.4 6.4 0 0 0-5.76-6.4 141.76 141.76 0 0 0-75.2 10.88 6.08 6.08 0 0 0-3.2 7.68l2.24 7.04z" fill="#666666" p-id="14007"></path><path d="M325.12 640S256 843.84 160 804.48s-3.84-380.8 68.48-460.16c0 0 36.8-38.4 118.72-21.76s137.92 47.68 304.32 3.84c0 0 101.12-32 143.36 26.24s165.12 387.52 73.6 444.8c0 0-77.76 68.48-174.72-156.8a85.76 85.76 0 0 1-125.44-2.88 75.52 75.52 0 0 0-117.44 0 84.16 84.16 0 0 1-125.76 2.24z" fill="#2C2C2C" p-id="14008"></path><path d="M361.92 363.52c131.2 61.44 181.76 49.28 280 6.72s131.84-21.76 183.68 38.4a333.76 333.76 0 0 0-29.44-56.64c-42.24-58.56-143.36-26.24-143.36-26.24-166.4 43.84-222.4 12.48-304.32-3.84s-118.72 21.76-118.72 21.76a316.16 316.16 0 0 0-50.56 90.88c5.12-12.48 58.56-129.28 182.72-71.04z" fill="#3D3D3D" p-id="14009"></path><path d="M388.48 583.68m-70.08 0a70.08 70.08 0 1 0 140.16 0 70.08 70.08 0 1 0-140.16 0Z" fill="#232323" p-id="14010"></path><path d="M334.08 567.04a55.68 50.24 0 1 0 111.36 0 55.68 50.24 0 1 0-111.36 0Z" fill="#2C2C2C" p-id="14011"></path><path d="M389.76 567.04m-40.64 0a40.64 40.64 0 1 0 81.28 0 40.64 40.64 0 1 0-81.28 0Z" fill="#494949" p-id="14012"></path><path d="M389.76 528.32A38.72 38.72 0 1 1 352 567.04a38.72 38.72 0 0 1 38.72-38.72m0-3.52a42.56 42.56 0 0 0 0 84.8 42.56 42.56 0 1 0 0-84.8z" fill="#181919" p-id="14013"></path><path d="M359.36 568.32m-2.88 0a2.88 2.88 0 1 0 5.76 0 2.88 2.88 0 1 0-5.76 0Z" fill="#222323" p-id="14014"></path><path d="M420.48 568.32m-2.88 0a2.88 2.88 0 1 0 5.76 0 2.88 2.88 0 1 0-5.76 0Z" fill="#222323" p-id="14015"></path><path d="M389.76 535.36m-2.88 0a2.88 2.88 0 1 0 5.76 0 2.88 2.88 0 1 0-5.76 0Z" fill="#222323" p-id="14016"></path><path d="M389.76 598.4m-2.88 0a2.88 2.88 0 1 0 5.76 0 2.88 2.88 0 1 0-5.76 0Z" fill="#222323" p-id="14017"></path><path d="M629.12 583.68m-70.08 0a70.08 70.08 0 1 0 140.16 0 70.08 70.08 0 1 0-140.16 0Z" fill="#232323" p-id="14018"></path><path d="M574.72 567.04a55.68 50.24 0 1 0 111.36 0 55.68 50.24 0 1 0-111.36 0Z" fill="#2C2C2C" p-id="14019"></path><path d="M630.4 608a40.64 40.64 0 1 1 41.6-40.96A40.64 40.64 0 0 1 630.4 608z" fill="#494949" p-id="14020"></path><path d="M630.4 528.32a38.72 38.72 0 1 1-38.72 38.72 39.04 39.04 0 0 1 38.72-38.72m0-3.52a42.56 42.56 0 0 0 0 84.8 42.56 42.56 0 1 0 0-84.8z" fill="#181919" p-id="14021"></path><path d="M600 568.32m-2.88 0a2.88 2.88 0 1 0 5.76 0 2.88 2.88 0 1 0-5.76 0Z" fill="#222323" p-id="14022"></path><path d="M661.12 568.32m-2.88 0a2.88 2.88 0 1 0 5.76 0 2.88 2.88 0 1 0-5.76 0Z" fill="#222323" p-id="14023"></path><path d="M630.4 535.36m-2.88 0a2.88 2.88 0 1 0 5.76 0 2.88 2.88 0 1 0-5.76 0Z" fill="#222323" p-id="14024"></path><path d="M630.4 598.4m-2.88 0a2.88 2.88 0 1 0 5.76 0 2.88 2.88 0 1 0-5.76 0Z" fill="#222323" p-id="14025"></path><path d="M352 435.52H316.16v-34.56a6.4 6.4 0 0 0-6.72-6.4h-26.88a6.72 6.72 0 0 0-6.72 6.4v34.56H241.6a6.72 6.72 0 0 0-6.72 6.4v27.2a6.72 6.72 0 0 0 6.72 6.4h34.24v34.56a6.72 6.72 0 0 0 6.72 6.4h26.88a6.4 6.4 0 0 0 6.72-6.4v-34.56H352a6.4 6.4 0 0 0 6.72-6.4v-27.2a6.4 6.4 0 0 0-6.72-6.4z" fill="#181919" p-id="14026"></path><path d="M282.56 512a8 8 0 0 1-8-8v-34.24l-32 1.6a8.32 8.32 0 0 1-8.32-8.32v-26.88a8.32 8.32 0 0 1 8.32-8h33.28v-32a8 8 0 0 1 8-8h26.88a8.32 8.32 0 0 1 8.32 8v34.56h32a8.32 8.32 0 0 1 8.32 8v26.88a8.32 8.32 0 0 1-8.32 8.32H316.16v32a8.32 8.32 0 0 1-8.32 8z" fill="#494949" p-id="14027"></path><path d="M309.44 388.48a6.72 6.72 0 0 1 6.72 6.72v34.56H352a6.4 6.4 0 0 1 6.72 6.4v26.88a6.72 6.72 0 0 1-6.72 6.72H316.16v34.56a6.4 6.4 0 0 1-6.72 6.4h-26.88a6.72 6.72 0 0 1-6.72-6.4v-34.56H241.6a6.72 6.72 0 0 1-6.72-6.72v-26.88a6.72 6.72 0 0 1 6.72-6.4h34.24v-34.56a7.04 7.04 0 0 1 6.72-6.72h26.88m0-2.88h-26.88a9.28 9.28 0 0 0-9.6 9.6v32h-32a9.6 9.6 0 0 0-9.6 9.6v26.88a9.6 9.6 0 0 0 9.6 9.92h32v32a9.6 9.6 0 0 0 9.6 9.6h26.88a9.6 9.6 0 0 0 9.6-9.6v-32h32a9.92 9.92 0 0 0 9.92-9.92v-26.88a9.92 9.92 0 0 0-9.92-9.6H320v-32a9.28 9.28 0 0 0-9.6-9.6z" fill="#181919" p-id="14028"></path><path d="M298.24 448.32m-7.36 0a7.36 7.36 0 1 0 14.72 0 7.36 7.36 0 1 0-14.72 0Z" fill="#222323" p-id="14029"></path><path d="M338.56 442.56l7.36 5.76-7.36 5.76v-11.52zM301.76 489.92l-5.76 7.36-5.76-7.36h11.52zM255.68 455.36l-7.36-5.76 7.36-5.44v11.2zM290.24 405.76l5.76-7.68 5.76 7.68h-11.52z" fill="#222323" p-id="14030"></path><path d="M400.64 443.84a17.28 16.96 90 1 0 33.92 0 17.28 16.96 90 1 0-33.92 0Z" fill="#181919" p-id="14031"></path><path d="M417.6 453.76a14.4 14.4 0 1 1 14.08-14.4 14.4 14.4 0 0 1-14.08 14.4z" fill="#494949" p-id="14032"></path><path d="M417.6 426.56a12.8 12.8 0 1 1-12.8 12.8 12.8 12.8 0 0 1 12.8-12.8m0-2.88a15.68 15.68 0 0 0-16 15.68 16 16 0 1 0 32 0 15.68 15.68 0 0 0-15.68-15.68z" fill="#181919" p-id="14033"></path><path d="M464.32 465.92a17.28 16.96 90 1 0 33.92 0 17.28 16.96 90 1 0-33.92 0Z" fill="#181919" p-id="14034"></path><path d="M480 475.52a14.4 14.4 0 1 1 14.08-14.4 14.4 14.4 0 0 1-14.08 14.4z" fill="#494949" p-id="14035"></path><path d="M480 448a12.8 12.8 0 1 1-12.8 12.8 12.8 12.8 0 0 1 12.8-12.8m0-2.88a16 16 0 1 0 0 32 16 16 0 0 0 0-32z" fill="#181919" p-id="14036"></path><path d="M531.52 465.92a17.28 16.96 90 1 0 33.92 0 17.28 16.96 90 1 0-33.92 0Z" fill="#181919" p-id="14037"></path><path d="M548.48 475.52a14.4 14.4 0 1 1 14.4-14.4 14.4 14.4 0 0 1-14.4 14.4z" fill="#494949" p-id="14038"></path><path d="M548.48 448a12.8 12.8 0 1 1-12.8 12.8 12.8 12.8 0 0 1 12.8-12.8m0-2.88a16 16 0 0 0 0 32 16 16 0 1 0 0-32z" fill="#181919" p-id="14039"></path><path d="M596.48 439.36a17.28 16.96 90 1 0 33.92 0 17.28 16.96 90 1 0-33.92 0Z" fill="#181919" p-id="14040"></path><path d="M613.44 448a14.4 14.4 0 1 1 14.4-14.08 14.08 14.08 0 0 1-14.4 14.08z" fill="#494949" p-id="14041"></path><path d="M613.44 422.08a12.8 12.8 0 0 1 0 25.6 12.8 12.8 0 0 1 0-25.6m0-3.2a16 16 0 0 0-15.68 16 16 16 0 0 0 32 0 16 16 0 0 0-16-16z" fill="#181919" p-id="14042"></path><path d="M489.6 546.88a21.76 21.44 90 1 0 42.88 0 21.76 21.44 90 1 0-42.88 0Z" fill="#181919" p-id="14043"></path><path d="M512 561.92a20.48 20.48 0 1 1 0-40.96 20.48 20.48 0 1 1 0 40.96z" fill="#494949" p-id="14044"></path><path d="M512 523.2a18.24 18.24 0 0 1 18.24 18.24 18.56 18.56 0 0 1-18.24 18.24 18.24 18.24 0 0 1-18.24-18.24 17.92 17.92 0 0 1 18.24-18.24m0-4.48a22.72 22.72 0 1 0 22.72 22.72 22.72 22.72 0 0 0-22.72-22.72z" fill="#181919" p-id="14045"></path><path d="M715.2 407.36a21.76 21.44 90 1 0 42.88 0 21.76 21.44 90 1 0-42.88 0Z" fill="#181919" p-id="14046"></path><path d="M736 422.4a20.48 20.48 0 1 1 20.48-20.48 20.48 20.48 0 0 1-20.48 20.48z" fill="#494949" p-id="14047"></path><path d="M736 384a18.24 18.24 0 0 1 18.24 18.24 17.92 17.92 0 0 1-18.24 18.24 18.24 18.24 0 0 1-18.24-18.24A18.56 18.56 0 0 1 736 384m0-4.48a22.72 22.72 0 1 0 22.72 22.72 22.72 22.72 0 0 0-22.72-22.72z" fill="#181919" p-id="14048"></path><path d="M714.24 487.36a21.76 21.44 90 1 0 42.88 0 21.76 21.44 90 1 0-42.88 0Z" fill="#181919" p-id="14049"></path><path d="M736 502.4a20.48 20.48 0 0 1-20.48-20.48 20.48 20.48 0 0 1 20.48-20.48 20.48 20.48 0 1 1 0 40.96z" fill="#494949" p-id="14050"></path><path d="M736 463.68a18.24 18.24 0 0 1 18.24 18.24 17.92 17.92 0 0 1-18.24 18.24 18.24 18.24 0 0 1-18.24-18.24 18.56 18.56 0 0 1 18.24-18.24m0-4.48a22.72 22.72 0 1 0 22.72 22.72 22.72 22.72 0 0 0-22.72-22.72z" fill="#181919" p-id="14051"></path><path d="M759.36 449.28a21.76 21.44 90 1 0 42.88 0 21.76 21.44 90 1 0-42.88 0Z" fill="#181919" p-id="14052"></path><path d="M780.16 464.32a20.48 20.48 0 1 1 20.48-20.48 20.48 20.48 0 0 1-20.48 20.48z" fill="#494949" p-id="14053"></path><path d="M780.16 425.6a18.56 18.56 0 0 1 18.24 18.24 18.24 18.24 0 0 1-18.24 18.24 17.92 17.92 0 0 1-18.24-18.24 18.24 18.24 0 0 1 18.24-18.24m0-4.48a22.72 22.72 0 1 0 22.72 22.72 22.72 22.72 0 0 0-22.72-22.72z" fill="#181919" p-id="14054"></path><path d="M671.04 447.04a21.76 21.44 90 1 0 42.88 0 21.76 21.44 90 1 0-42.88 0Z" fill="#181919" p-id="14055"></path><path d="M691.84 462.08a20.48 20.48 0 0 1-19.84-20.48 20.48 20.48 0 1 1 20.48 20.48z" fill="#494949" p-id="14056"></path><path d="M691.84 423.36a17.92 17.92 0 0 1 18.24 18.24 18.24 18.24 0 0 1-18.24 18.24 18.56 18.56 0 0 1-18.24-18.24 18.24 18.24 0 0 1 18.24-18.24m0-4.48a22.72 22.72 0 1 0 22.72 22.72 22.72 22.72 0 0 0-22.72-22.72z" fill="#181919" p-id="14057"></path><path d="M700.48 449.6h-2.56l-2.56-7.36h-7.04l-2.24 7.36h-2.56l7.04-21.12h2.88z m-5.76-9.6l-2.88-8.64-2.56 8.64zM739.52 399.68a5.44 5.44 0 0 1 3.2 1.92 4.48 4.48 0 0 1 0 3.52 5.76 5.76 0 0 1-1.92 4.48 7.68 7.68 0 0 1-5.12 0h-6.08v-21.12h6.4a6.72 6.72 0 0 1 4.8 0 4.48 4.48 0 0 1 1.92 3.84 3.52 3.52 0 0 1 0 2.56 4.8 4.8 0 0 1-2.88 1.92z m-6.08 0H736c2.88 0 4.48 0 4.48-3.2a2.56 2.56 0 0 0 0-2.24h-6.08z m0 10.88H736a8 8 0 0 0 4.16 0 3.2 3.2 0 0 0 0-2.88 3.52 3.52 0 0 0 0-3.2 5.76 5.76 0 0 0-4.16 0h-2.56zM787.84 452.48a8.96 8.96 0 0 1-5.76 1.92 7.68 7.68 0 0 1-6.4-2.88 15.36 15.36 0 0 1-1.92-8.32 14.72 14.72 0 0 1 1.92-8 7.36 7.36 0 0 1 6.4-2.88H787.52v1.92a10.24 10.24 0 0 0-4.48 0 5.44 5.44 0 0 0-4.48 1.92 13.12 13.12 0 0 0 0 6.72c0 6.08 1.92 8.96 5.76 8.96a11.84 11.84 0 0 0 5.12-1.6zM728.32 470.4h4.16a8.32 8.32 0 0 1 6.72 2.88 11.84 11.84 0 0 1 2.56 8 11.52 11.52 0 0 1-2.56 7.68 8.64 8.64 0 0 1-6.72 2.88h-4.16z m2.56 19.2h1.6a5.76 5.76 0 0 0 4.8-2.24 9.28 9.28 0 0 0 1.92-7.36 9.6 9.6 0 0 0-1.92-6.4 6.72 6.72 0 0 0-4.8-2.24h-1.6z" fill="#878787" p-id="14058"></path><path d="M456.32 367.68a9.92 9.92 0 0 0-6.72 2.24v-6.08a2.24 2.24 0 0 0-4.48 0v15.36a11.52 11.52 0 0 0 22.72 0 11.52 11.52 0 0 0-11.52-11.52z m0 18.24a7.04 7.04 0 0 1 0-13.76 7.04 7.04 0 1 1 0 13.76zM572.8 367.68a2.24 2.24 0 0 0-2.24 2.56v17.92a2.24 2.24 0 0 0 2.24 2.24 2.56 2.56 0 0 0 2.56-2.24v-17.92a2.56 2.56 0 0 0-2.56-2.56zM512 384a6.08 6.08 0 0 1-5.44 2.88 6.72 6.72 0 0 1-6.72-6.72v-15.36a2.24 2.24 0 0 0-2.24-2.24 2.56 2.56 0 0 0-2.56 2.24v15.36a11.52 11.52 0 0 0 11.52 11.2 10.24 10.24 0 0 0 7.68-2.88A13.12 13.12 0 0 1 512 384zM532.16 376.64a2.56 2.56 0 0 0-2.24 2.56 7.04 7.04 0 0 1-13.76 0v-15.36a2.24 2.24 0 0 0-4.48 0v15.36a11.52 11.52 0 0 0 22.72 0 2.56 2.56 0 0 0-2.24-2.56zM555.52 365.44a11.52 11.52 0 0 0-11.52 11.2v11.2a2.24 2.24 0 0 0 4.48 0v-2.24a13.12 13.12 0 0 0 7.04 2.24 12.16 12.16 0 0 0 6.72-2.24v2.24a2.24 2.24 0 0 0 4.48 0v-11.2a11.2 11.2 0 0 0-11.2-11.2z m0 18.24a7.04 7.04 0 1 1 0-13.76 7.04 7.04 0 0 1 0 13.76zM488.64 370.88l-2.88-2.24H478.4l-3.2 2.24a10.56 10.56 0 0 0-1.92 3.2 16 16 0 0 0 0 3.84 11.52 11.52 0 0 0 0 3.52 10.56 10.56 0 0 0 1.92 3.2l3.2 2.24H480a11.2 11.2 0 0 0 8-3.2 2.24 2.24 0 0 0-3.2-3.2 7.04 7.04 0 0 1-6.08 1.92h-3.84 15.04a2.56 2.56 0 0 0 2.56-2.24 11.52 11.52 0 0 0-3.2-8z m-1.92 5.76h-11.84a10.88 10.88 0 0 1 1.92-1.92h7.68a8.64 8.64 0 0 1 2.56 3.2z" fill="#A0A0A0" p-id="14059"></path><path d="M538.24 388.16m-2.56 0a2.56 2.56 0 1 0 5.12 0 2.56 2.56 0 1 0-5.12 0Z" fill="#A0A0A0" p-id="14060"></path></svg>